<?xml version="1.0" encoding="UTF-8"?>
<svg width="20px" height="20px" viewBox="0 0 20 20" version="1.1" xmlns="http://www.w3.org/2000/svg" xmlns:xlink="http://www.w3.org/1999/xlink">
    <!-- Generator: Sketch 51.2 (57519) - http://www.bohemiancoding.com/sketch -->
    <title>tbar_measure</title>
    <desc>Created with Sketch.</desc>
    <defs></defs>
    <g id="tbar_measure" stroke="none" stroke-width="1" fill="none" fill-rule="evenodd">
        <g transform="translate(1.000000, 1.000000)" fill="#000000" fill-rule="nonzero">
            <path d="M10.5,5.5 C9.397,5.5 8.49999999,6.397 8.50000001,7.50000001 C8.50000003,8.60300002 9.397,9.50000001 10.5,9.49999999 C11.603,9.49999997 12.5,8.603 12.5,7.50000001 C12.5,6.39700001 11.603,5.5 10.5,5.5 M10.5,10.5 C8.846,10.5 7.49999999,9.154 7.50000001,7.50000001 C7.50000002,5.84600001 8.846,4.5 10.5,4.5 C12.154,4.5 13.5,5.84599999 13.5,7.50000001 C13.5,9.15400002 12.154,10.5 10.5,10.5" id="Shape"></path>
            <path d="M4.00000001,12.9996324 L3.00000001,12.9996324 L3.00000001,7 C3.00000001,2.87500001 6.37500001,0 10.5,0 C14.625,0 18,2.87499999 18,7 L18,8.50000001 C18,12.625 14.625,16 10.5,16 L1,16 L1,18 L0,18 L0,15 L3.00000001,15 L4.00000001,14.9996324 L10.5,15 C14.084,15 17,12.084 17,8.50000001 L17,7 C17,3.58 14.206,1 10.5,1 C6.79400002,1 4.00000001,3.58 4.00000001,7 L4.00000001,12.9996324 Z" id="Combined-Shape"></path>
        </g>
    </g>
</svg>